
<svg width="20" height="20" viewBox="0 0 20 20" fill="none" xmlns="http://www.w3.org/2000/svg">
<path d="M18.3333 9.08329V3.41663C18.3333 2.16663 17.8 1.66663 16.475 1.66663H13.1083C11.7833 1.66663 11.25 2.16663 11.25 3.41663V9.08329C11.25 10.3333 11.7833 10.8333 13.1083 10.8333H16.475C17.8 10.8333 18.3333 10.3333 18.3333 9.08329Z" stroke="white" stroke-width="1.5" stroke-linecap="round" stroke-linejoin="round"/>
<path d="M18.3333 16.5834V15.0834C18.3333 13.8334 17.8 13.3334 16.475 13.3334H13.1083C11.7833 13.3334 11.25 13.8334 11.25 15.0834V16.5834C11.25 17.8334 11.7833 18.3334 13.1083 18.3334H16.475C17.8 18.3334 18.3333 17.8334 18.3333 16.5834Z" stroke="white" stroke-width="1.5" stroke-linecap="round" stroke-linejoin="round"/>
<path d="M8.74996 10.9166V16.5833C8.74996 17.8333 8.21663 18.3333 6.89163 18.3333H3.52496C2.19996 18.3333 1.66663 17.8333 1.66663 16.5833V10.9166C1.66663 9.66663 2.19996 9.16663 3.52496 9.16663H6.89163C8.21663 9.16663 8.74996 9.66663 8.74996 10.9166Z" stroke="white" stroke-width="1.5" stroke-linecap="round" stroke-linejoin="round"/>
<path d="M8.74996 3.41663V4.91663C8.74996 6.16663 8.21663 6.66663 6.89163 6.66663H3.52496C2.19996 6.66663 1.66663 6.16663 1.66663 4.91663V3.41663C1.66663 2.16663 2.19996 1.66663 3.52496 1.66663H6.89163C8.21663 1.66663 8.74996 2.16663 8.74996 3.41663Z" stroke="white" stroke-width="1.5" stroke-linecap="round" stroke-linejoin="round"/>
</svg>
