<svg width="20" height="20" viewBox="0 0 20 20" fill="none" xmlns="http://www.w3.org/2000/svg">
<path d="M8.68581 18.0434L8.68305 18.0418L4.11496 15.4089C3.16178 14.7659 2.78261 14.4689 2.59076 14.1385C2.40775 13.8233 2.3667 13.4255 2.3667 12.4083V7.59163C2.3667 6.57302 2.40562 6.17405 2.58452 5.85988C2.77035 5.53355 3.13837 5.24139 4.07398 4.60729L8.67512 1.94959L8.6762 1.94896C9.02138 1.74843 9.49266 1.63538 9.98753 1.63538C10.4824 1.63538 10.9537 1.74843 11.2989 1.94897L11.3004 1.94988L15.8851 4.59106C16.8383 5.234 17.2175 5.53103 17.4093 5.86144C17.5923 6.17663 17.6334 6.57447 17.6334 7.59163V12.4C17.6334 13.4186 17.5944 13.8175 17.4155 14.1317C17.2297 14.458 16.8617 14.7502 15.9261 15.3843L11.3261 18.0413C11.3259 18.0414 11.3257 18.0416 11.3255 18.0417C10.967 18.2473 10.4907 18.3583 10 18.3583C9.50802 18.3583 9.03362 18.2468 8.68581 18.0434ZM4.2331 4.8171L4.21807 4.82579L4.20367 4.83551L4.18755 4.84639C3.86167 5.0663 3.59379 5.24707 3.38779 5.4101C3.17519 5.57836 2.99258 5.75473 2.86232 5.97929C2.72905 6.20903 2.67398 6.44839 2.64868 6.70429C2.62501 6.94377 2.62502 7.23197 2.62503 7.56854L2.62503 7.59163V12.4L2.62503 12.4234C2.62502 12.7597 2.62501 13.0484 2.64931 13.2888C2.67536 13.5464 2.73206 13.7868 2.86798 14.018C3.00034 14.2431 3.18564 14.4211 3.40209 14.5922C3.6124 14.7585 3.88617 14.9437 4.22058 15.17L4.23649 15.1807L4.25133 15.1908L4.26684 15.1997L8.81684 17.8247L8.81705 17.8248C9.163 18.0242 9.60367 18.1041 10.0042 18.1041C10.4047 18.1041 10.8454 18.0242 11.1913 17.8248L11.192 17.8245L15.7753 15.1745L15.791 15.1654L15.8059 15.1553L15.822 15.1443C16.1458 14.9245 16.4122 14.7436 16.617 14.5806C16.8285 14.4121 17.01 14.2357 17.1395 14.0111C17.2718 13.7816 17.3264 13.5426 17.3515 13.287C17.3751 13.0477 17.375 12.7596 17.375 12.4229V12.4V7.59163V7.56819C17.375 7.23192 17.3751 6.94322 17.3508 6.7028C17.3247 6.44515 17.268 6.20475 17.1321 5.9736C16.9997 5.74851 16.8144 5.57045 16.598 5.39936C16.3877 5.23312 16.1139 5.04788 15.7794 4.82158L15.7636 4.81085L15.7487 4.80082L15.7332 4.79187L11.1862 2.16861C11.1857 2.1683 11.1852 2.16799 11.1846 2.16768C10.8382 1.96516 10.3984 1.89163 10 1.89163C9.60159 1.89163 9.16173 1.96518 8.81527 2.16778L4.2331 4.8171Z" stroke="#fff"/>
<path d="M10 12.625C8.55114 12.625 7.375 11.4489 7.375 10C7.375 8.55114 8.55114 7.375 10 7.375C11.4489 7.375 12.625 8.55114 12.625 10C12.625 11.4489 11.4489 12.625 10 12.625ZM10 7.625C8.69052 7.625 7.625 8.69052 7.625 10C7.625 11.3095 8.69052 12.375 10 12.375C11.3095 12.375 12.375 11.3095 12.375 10C12.375 8.69052 11.3095 7.625 10 7.625Z" fill="#292D32" stroke="#fff"/>
</svg>