
<svg width="24" height="24" viewBox="0 0 24 24" fill="none" xmlns="http://www.w3.org/2000/svg">
<path fill-rule="evenodd" clip-rule="evenodd" d="M23.5049 18.5037C23.5049 21.2651 21.2663 23.5037 18.5048 23.5037H5.4953C2.73388 23.5037 0.4953 21.2651 0.4953 18.5037V5.49414C0.4953 2.73272 2.73388 0.494141 5.49531 0.494141H18.5049C21.2663 0.494141 23.5049 2.73272 23.5049 5.49415V18.5037ZM13.1515 5.47381L16.5152 7.51277C17.888 8.4811 17.966 8.62431 17.966 10.145V13.8547C17.966 15.3754 17.888 15.5186 16.5412 16.4733L13.145 18.5259C12.8262 18.7236 12.4098 18.8191 11.9999 18.8191C11.59 18.8191 11.1737 18.7236 10.8484 18.5259L7.48469 16.4869C6.1119 15.5186 6.03383 15.3686 6.03383 13.8479V10.145C6.03383 8.62431 6.1119 8.4811 7.45867 7.52641L10.8549 5.47381C11.499 5.08511 12.5074 5.08511 13.1515 5.47381ZM9.88545 11.9998C9.88545 13.2205 10.8353 14.2161 11.9999 14.2161C13.1645 14.2161 14.1144 13.2205 14.1144 11.9998C14.1144 10.7792 13.1645 9.78358 11.9999 9.78358C10.8353 9.78358 9.88545 10.7792 9.88545 11.9998Z" fill="#FF9138"/>
</svg>
